<svg id="Layer_1" data-name="Layer 1" xmlns="http://www.w3.org/2000/svg" viewBox="0 0 693.89 207.25"><defs><style>.cls-1{opacity:0.15;}.cls-2,.cls-4{fill:none;stroke-miterlimit:10;stroke-width:8px;}.cls-2{stroke:#020202;}.cls-3{fill:#020202;}.cls-4{stroke:#4eba70;}.cls-5{fill:#4eba70;}</style></defs><g class="cls-1"><ellipse class="cls-2" cx="601.02" cy="99.83" rx="24.1" ry="24.07"/><line class="cls-2" x1="625.25" y1="72.42" x2="625.25" y2="127.24"/><ellipse class="cls-2" cx="539.46" cy="100.49" rx="24.1" ry="24.07"/><line class="cls-2" x1="563.69" y1="73.08" x2="563.69" y2="147.57"/><path class="cls-2" d="M639.69,339.7a24.1,24.1,0,0,1-48.19.18" transform="translate(-76 -192.37)"/><line class="cls-2" x1="375.61" y1="77.17" x2="375.61" y2="128.55"/><line class="cls-2" x1="327.41" y1="77.17" x2="327.41" y2="101.33"/><path class="cls-2" d="M451.61,293.53a24.1,24.1,0,0,1-48.19.18" transform="translate(-76 -192.37)"/><line class="cls-2" x1="438.42" y1="77.64" x2="438.42" y2="129.02"/><line class="cls-2" x1="390.22" y1="77.64" x2="390.22" y2="101.8"/><path class="cls-2" d="M514.42,294a24.1,24.1,0,0,1-48.19.18" transform="translate(-76 -192.37)"/><line class="cls-2" x1="502.13" y1="128.31" x2="500.19" y2="77.41"/><path class="cls-2" d="M577.21,296.55a24.1,24.1,0,0,0-48.16,2v22.61" transform="translate(-76 -192.37)"/><ellipse class="cls-2" cx="662.44" cy="98.13" rx="24.1" ry="24.07"/><line class="cls-2" x1="686.67" y1="70.72" x2="686.67" y2="125.53"/><path class="cls-3" d="M296.5,219.41V375.12a20.64,20.64,0,0,0,5.86,14.14,22.31,22.31,0,0,0,14.14,5.86c5.17-.24,10.54-1.94,14.14-5.86a20.82,20.82,0,0,0,5.86-14.14V219.41a20.6,20.6,0,0,0-5.86-14.14,15,15,0,0,0-6.43-4.14,15.16,15.16,0,0,0-7.71-1.72c-5.17.23-10.54,1.93-14.14,5.86a20.78,20.78,0,0,0-5.86,14.14Z" transform="translate(-76 -192.37)"/><path class="cls-3" d="M394.28,206l-69.9,66.91-19.82,19A22.36,22.36,0,0,0,298.7,306a22.37,22.37,0,0,0,5.86,14.14c3.81,3.5,8.82,6.1,14.14,5.86a21.22,21.22,0,0,0,14.15-5.86l69.9-66.92,19.81-19a15,15,0,0,0,4.14-6.43,18.12,18.12,0,0,0,0-15.41,15,15,0,0,0-4.14-6.44c-3.81-3.5-8.81-6.1-14.14-5.86A21.22,21.22,0,0,0,394.28,206Z" transform="translate(-76 -192.37)"/><path class="cls-3" d="M428.58,354.47,355.23,293,334.6,275.76a15,15,0,0,0-6.43-4.14,18.12,18.12,0,0,0-15.41,0,15,15,0,0,0-6.44,4.14c-3.5,3.81-6.1,8.81-5.86,14.14.23,5,1.84,10.78,5.86,14.14l73.35,61.44,20.63,17.28a19.34,19.34,0,0,0,21.84,4.13,14.92,14.92,0,0,0,6.44-4.13c3.5-3.81,6.1-8.82,5.86-14.15-.23-5-1.84-10.77-5.86-14.14Z" transform="translate(-76 -192.37)"/><rect y="4.13" width="86.34" height="14.86"/><rect x="38.69" y="90.48" width="128.76" height="21.44"/><rect x="40.26" y="232.25" width="86.34" height="14.86" transform="translate(247.11 -36.13) rotate(90)"/><rect x="40.26" y="349.03" width="86.34" height="14.86" transform="translate(-349.03 247.51) rotate(-90)"/><rect y="192.4" width="86.34" height="14.86"/><rect x="192.78" y="384.77" width="86.34" height="14.86" transform="translate(395.9 592.02) rotate(180)"/><rect x="228.52" y="349.03" width="86.34" height="14.86" transform="translate(-160.76 435.78) rotate(-90)"/><rect x="228.52" y="232.25" width="86.34" height="14.86" transform="translate(435.37 -224.39) rotate(90)"/><rect x="192.78" y="196.51" width="86.34" height="14.86" transform="translate(395.9 215.49) rotate(180)"/></g><ellipse class="cls-4" cx="604.23" cy="95.7" rx="24.1" ry="24.07"/><line class="cls-4" x1="628.46" y1="68.29" x2="628.46" y2="123.11"/><ellipse class="cls-4" cx="542.67" cy="96.36" rx="24.1" ry="24.07"/><line class="cls-4" x1="566.9" y1="68.95" x2="566.9" y2="143.44"/><path class="cls-4" d="M642.9,335.57a24.1,24.1,0,0,1-48.19.18" transform="translate(-76 -192.37)"/><line class="cls-4" x1="378.82" y1="73.04" x2="378.82" y2="124.42"/><line class="cls-4" x1="330.63" y1="73.04" x2="330.63" y2="97.2"/><path class="cls-4" d="M454.83,289.4a24.1,24.1,0,0,1-48.19.18" transform="translate(-76 -192.37)"/><line class="cls-4" x1="441.63" y1="73.51" x2="441.63" y2="124.89"/><line class="cls-4" x1="393.44" y1="73.51" x2="393.44" y2="97.67"/><path class="cls-4" d="M517.64,289.87a24.1,24.1,0,0,1-48.19.18" transform="translate(-76 -192.37)"/><line class="cls-4" x1="505.34" y1="124.18" x2="503.41" y2="73.28"/><path class="cls-4" d="M580.42,292.42a24.1,24.1,0,0,0-48.15,2V317" transform="translate(-76 -192.37)"/><ellipse class="cls-4" cx="665.65" cy="94" rx="24.1" ry="24.07"/><line class="cls-4" x1="689.89" y1="66.59" x2="689.89" y2="121.4"/><path class="cls-5" d="M299.71,215.28V371a20.69,20.69,0,0,0,5.86,14.15A22.28,22.28,0,0,0,319.71,391c5.18-.23,10.54-1.93,14.15-5.85A20.82,20.82,0,0,0,339.71,371V215.28a20.64,20.64,0,0,0-5.85-14.14,22.22,22.22,0,0,0-14.15-5.86c-5.17.23-10.53,1.93-14.14,5.86a20.78,20.78,0,0,0-5.86,14.14Z" transform="translate(-76 -192.37)"/><path class="cls-5" d="M397.49,201.88l-69.9,66.91-19.81,19a22.22,22.22,0,0,0-5.86,14.15,22.22,22.22,0,0,0,5.86,14.14c3.81,3.5,8.81,6.09,14.14,5.86a21.22,21.22,0,0,0,14.14-5.86L406,249.13l19.82-19a14.89,14.89,0,0,0,4.13-6.43,18,18,0,0,0,0-15.41,14.92,14.92,0,0,0-4.13-6.44c-3.81-3.5-8.82-6.1-14.14-5.86a21.22,21.22,0,0,0-14.15,5.86Z" transform="translate(-76 -192.37)"/><path class="cls-5" d="M431.79,350.34l-73.34-61.43-20.63-17.28a22.22,22.22,0,0,0-14.14-5.86,22.22,22.22,0,0,0-14.15,5.86c-3.5,3.81-6.09,8.81-5.85,14.14.22,5,1.84,10.78,5.85,14.14l73.35,61.44,20.63,17.28a19.36,19.36,0,0,0,21.85,4.13,14.89,14.89,0,0,0,6.43-4.13c3.5-3.82,6.1-8.82,5.86-14.15-.22-5-1.84-10.77-5.86-14.14Z" transform="translate(-76 -192.37)"/><rect class="cls-5" x="3.21" width="86.34" height="14.86"/><rect class="cls-5" x="41.91" y="86.34" width="128.76" height="21.44"/><rect class="cls-5" x="43.47" y="228.12" width="86.34" height="14.86" transform="translate(246.19 -43.47) rotate(90)"/><rect class="cls-5" x="43.47" y="344.9" width="86.34" height="14.86" transform="translate(-341.68 246.59) rotate(-90)"/><rect class="cls-5" x="3.21" y="188.27" width="86.34" height="14.86"/><rect class="cls-5" x="195.99" y="380.64" width="86.34" height="14.86" transform="translate(402.33 583.76) rotate(180)"/><rect class="cls-5" x="231.74" y="344.9" width="86.34" height="14.86" transform="translate(-153.42 434.86) rotate(-90)"/><rect class="cls-5" x="231.74" y="228.12" width="86.34" height="14.86" transform="translate(434.46 -231.74) rotate(90)"/><rect class="cls-5" x="195.99" y="192.37" width="86.34" height="14.86" transform="translate(402.33 207.23) rotate(180)"/></svg>